<svg width="21" height="20" viewBox="0 0 21 20" fill="none" xmlns="http://www.w3.org/2000/svg">
<path d="M0.5 0H20.5V20H0.5V0Z" fill="white"/>
<path d="M9.60511 13.1364V13.0767C9.61174 12.4437 9.67803 11.9399 9.80398 11.5653C9.92992 11.1908 10.1089 10.8875 10.3409 10.6555C10.5729 10.4235 10.8513 10.2098 11.1761 10.0142C11.3717 9.89489 11.5473 9.75402 11.7031 9.59162C11.8589 9.4259 11.9815 9.23532 12.071 9.01989C12.1638 8.80445 12.2102 8.56581 12.2102 8.30398C12.2102 7.97917 12.134 7.69744 11.9815 7.45881C11.8291 7.22017 11.6252 7.03622 11.37 6.90696C11.1148 6.7777 10.8314 6.71307 10.5199 6.71307C10.2481 6.71307 9.98627 6.76941 9.73438 6.8821C9.48248 6.99479 9.27202 7.17211 9.10298 7.41406C8.93395 7.65601 8.83617 7.97254 8.80966 8.36364H7.55682C7.58333 7.80019 7.72917 7.31794 7.99432 6.9169C8.26278 6.51586 8.61577 6.20928 9.05327 5.99716C9.49408 5.78504 9.98295 5.67898 10.5199 5.67898C11.1032 5.67898 11.6103 5.79498 12.0412 6.02699C12.4754 6.259 12.8101 6.57718 13.0455 6.98153C13.2841 7.38589 13.4034 7.84659 13.4034 8.36364C13.4034 8.72822 13.3471 9.058 13.2344 9.35298C13.125 9.64796 12.9659 9.91146 12.7571 10.1435C12.5516 10.3755 12.303 10.581 12.0114 10.7599C11.7197 10.9422 11.486 11.1345 11.3104 11.3366C11.1347 11.5355 11.0071 11.7725 10.9276 12.0476C10.848 12.3227 10.8049 12.6657 10.7983 13.0767V13.1364H9.60511ZM10.2415 16.0795C9.99621 16.0795 9.78575 15.9917 9.61009 15.8161C9.43442 15.6404 9.34659 15.4299 9.34659 15.1847C9.34659 14.9394 9.43442 14.7289 9.61009 14.5533C9.78575 14.3776 9.99621 14.2898 10.2415 14.2898C10.4867 14.2898 10.6972 14.3776 10.8729 14.5533C11.0485 14.7289 11.1364 14.9394 11.1364 15.1847C11.1364 15.3471 11.0949 15.4962 11.0121 15.6321C10.9325 15.768 10.8248 15.8774 10.6889 15.9602C10.5563 16.0398 10.4072 16.0795 10.2415 16.0795Z" fill="black"/>
</svg>
