<svg width="113" height="95" viewBox="0 0 113 95" fill="none" xmlns="http://www.w3.org/2000/svg">
<rect x="24.4541" y="18" width="62.7822" height="49.1131" rx="24.5565" transform="rotate(0.529485 24.4541 18)" fill="#D9D9D9"/>
<path d="M30.0695 52.6273C24.3497 56.2482 17.0314 50.9333 20.2297 45.481C22.2126 42.1006 27.2966 41.1411 30.5821 43.5272C33.8676 45.9133 33.6159 50.3823 30.0695 52.6273Z" fill="#D9D9D9"/>
<ellipse cx="54.4558" cy="11.1416" rx="13.7129" ry="10.6459" transform="rotate(0.529485 54.4558 11.1416)" fill="#D9D9D9"/>
<ellipse cx="49.0486" cy="6.26532" rx="2.97389" ry="2.41307" transform="rotate(0.529485 49.0486 6.26532)" fill="#6D4E4E"/>
<ellipse cx="57.6395" cy="6.34472" rx="2.97389" ry="2.41307" transform="rotate(0.529485 57.6395 6.34472)" fill="#6D4E4E"/>
<path d="M90.5117 48.7782C94.2625 53.8632 87.4645 59.8547 81.453 56.7622C77.7744 54.8698 77.1273 50.5164 80.1311 47.8689C83.1349 45.2215 88.2164 45.6666 90.5117 48.7782Z" fill="#D9D9D9"/>
<path d="M42.6095 72.328C37.5813 76.8285 29.5464 72.7666 31.6667 66.7961C33.0062 63.0238 37.9049 61.1671 41.5955 63.0328C45.286 64.8984 45.7863 69.4845 42.6095 72.328Z" fill="#D9D9D9"/>
<path d="M79.6965 63.9626C82.6043 69.5769 75.0426 74.5281 69.5048 70.6358C66.0591 68.214 66.024 63.715 69.4334 61.4827C72.8427 59.2503 77.8873 60.4692 79.6965 63.9626Z" fill="#D9D9D9"/>
<ellipse cx="56" cy="42.5" rx="21" ry="14.5" fill="#573737"/>
</svg>
