<svg xmlns="http://www.w3.org/2000/svg" width="18" height="22" viewBox="0 0 18 22" fill="none">
  <path d="M5.06579 5.63498e-06C4.64561 -0.00159212 4.30366 0.33769 4.30198 0.75787V3.8027C4.27893 4.83991 5.84668 4.83991 5.82365 3.8027V1.52168H16.4783V19.7817H5.82365V17.5007C5.84671 16.4635 4.27896 16.4635 4.30198 17.5007V20.5455C4.3035 20.9657 4.64561 21.305 5.06579 21.3034H17.2362C17.6564 21.305 17.9983 20.9657 18 20.5455V0.75787C17.9983 0.33769 17.6564 -0.00159425 17.2362 5.63498e-06H5.06579ZM5.05391 5.58888C2.26946 5.58888 0 7.86429 0 10.6487C0 13.4332 2.26946 15.7041 5.05391 15.7041C6.17279 15.7041 7.20675 15.3322 8.04673 14.713L12.1318 18.798C12.8508 19.5477 13.9598 18.4372 13.2091 17.7192L9.12409 13.6371C9.74339 12.7986 10.1153 11.7666 10.1153 10.6487C10.1153 7.86429 7.83837 5.58888 5.05391 5.58888ZM5.05391 7.11055C7.01599 7.11055 8.59358 8.68666 8.59358 10.6487C8.59358 12.6436 6.93083 14.1175 5.05391 14.181C3.09183 14.181 1.52167 12.6108 1.52167 10.6487C1.52167 8.68666 3.09183 7.11055 5.05391 7.11055ZM4.30198 8.3692V9.89087H2.78031C1.74283 9.86758 1.74283 11.4358 2.78031 11.4125H4.30198V12.9342C4.27893 13.9714 5.84668 13.9714 5.82365 12.9342V11.4125H7.34532C8.3828 11.4358 8.3828 9.86758 7.34532 9.89087H5.82365V8.3692C5.82365 7.37915 4.30198 7.38944 4.30198 8.3692Z" fill="white"/>
</svg>