<svg xmlns="http://www.w3.org/2000/svg" width="80" height="80" viewBox="0 0 80 80" fill="none">
  <g clip-path="url(#clip0_8_4)">
    <path d="M39.9999 50C43.6818 50 46.6666 47.0153 46.6666 43.3334C46.6666 39.6515 43.6818 36.6667 39.9999 36.6667C36.318 36.6667 33.3333 39.6515 33.3333 43.3334C33.3333 47.0153 36.318 50 39.9999 50Z" fill="#44EC22" stroke="black" stroke-width="0.00064"/>
    <path d="M40.0001 25C36.3741 25 32.8295 26.0752 29.8146 28.0897C26.7997 30.1042 24.4499 32.9675 23.0623 36.3175C21.6747 39.6675 21.3116 43.3537 22.019 46.91C22.7264 50.4663 24.4725 53.733 27.0365 56.2969C29.6004 58.8609 32.8671 60.607 36.4234 61.3144C39.9797 62.0218 43.666 61.6588 47.016 60.2711C50.3659 58.8835 53.2292 56.5337 55.2437 53.5188C57.2582 50.5039 58.3334 46.9593 58.3334 43.3333C58.3277 38.4728 56.3943 33.813 52.9574 30.376C49.5204 26.9391 44.8606 25.0057 40.0001 25ZM40.0001 58.3333C37.0334 58.3333 34.1333 57.4536 31.6665 55.8054C29.1998 54.1571 27.2772 51.8145 26.1419 49.0736C25.0066 46.3327 24.7095 43.3167 25.2883 40.407C25.8671 37.4973 27.2957 34.8245 29.3935 32.7267C31.4913 30.629 34.164 29.2003 37.0737 28.6216C39.9834 28.0428 42.9995 28.3398 45.7403 29.4751C48.4812 30.6105 50.8239 32.5331 52.4721 34.9998C54.1204 37.4665 55.0001 40.3666 55.0001 43.3333C54.9957 47.3102 53.4139 51.1229 50.6018 53.935C47.7897 56.7471 43.977 58.3289 40.0001 58.3333Z" fill="#303033" stroke="black" stroke-width="0.00064"/>
    <path d="M71.6666 36.6667H67.5266C66.8291 33.8217 65.6897 31.1036 64.1499 28.6117L67.1066 25.6567C68.0429 24.7179 68.5687 23.446 68.5687 22.12C68.5687 20.7941 68.0429 19.5222 67.1066 18.5833L64.7499 16.2267C64.2856 15.7623 63.7344 15.3939 63.1277 15.1426C62.521 14.8913 61.8708 14.7619 61.2141 14.7619C60.5574 14.7619 59.9072 14.8913 59.3005 15.1426C58.6938 15.3939 58.1426 15.7623 57.6782 16.2267L54.7233 19.1834C52.2308 17.6435 49.5122 16.5041 46.6666 15.8067V11.6667C46.6666 10.3406 46.1398 9.06886 45.2021 8.13117C44.2644 7.19349 42.9927 6.66669 41.6666 6.66669H38.3333C37.0072 6.66669 35.7354 7.19349 34.7977 8.13117C33.86 9.06886 33.3333 10.3406 33.3333 11.6667V15.8067C28.2854 17.0527 23.6741 19.6546 19.9976 23.3311C16.3211 27.0076 13.7193 31.6189 12.4732 36.6667H8.33325C7.00717 36.6667 5.7354 37.1935 4.79771 38.1312C3.86003 39.0689 3.33325 40.3406 3.33325 41.6667V45C3.33325 46.3261 3.86003 47.5979 4.79771 48.5355C5.7354 49.4732 7.00717 50 8.33325 50H12.4732C13.1708 52.845 14.3102 55.5631 15.8499 58.055L12.8932 61.01C11.9569 61.9489 11.4311 63.2207 11.4311 64.5467C11.4311 65.8726 11.9569 67.1445 12.8932 68.0834L15.2499 70.44C15.7142 70.9044 16.2655 71.2728 16.8721 71.5241C17.4788 71.7755 18.1291 71.9048 18.7858 71.9048C19.4424 71.9048 20.0927 71.7755 20.6994 71.5241C21.306 71.2728 21.8573 70.9044 22.3216 70.44L25.2766 67.4833C27.7691 69.0233 30.4877 70.1627 33.3333 70.86V75C33.3333 76.3261 33.86 77.5979 34.7977 78.5355C35.7354 79.4732 37.0072 80 38.3333 80H41.6666C42.9927 80 44.2644 79.4732 45.2021 78.5355C46.1398 77.5979 46.6666 76.3261 46.6666 75V70.86C49.5116 70.1625 52.2296 69.0231 54.7216 67.4833L57.6766 70.44C58.1409 70.9044 58.6921 71.2728 59.2988 71.5241C59.9055 71.7755 60.5557 71.9048 61.2124 71.9048C61.8691 71.9048 62.5194 71.7755 63.126 71.5241C63.7327 71.2728 64.284 70.9044 64.7483 70.44L67.1066 68.0834C68.0429 67.1445 68.5687 65.8726 68.5687 64.5467C68.5687 63.2207 68.0429 61.9489 67.1066 61.01L64.1516 58.055C65.6907 55.563 66.8296 52.8449 67.5266 50H71.6666C72.9927 50 74.2644 49.4732 75.2021 48.5355C76.1398 47.5979 76.6666 46.3261 76.6666 45V41.6667C76.6666 40.3406 76.1398 39.0689 75.2021 38.1312C74.2644 37.1935 72.9927 36.6667 71.6666 36.6667ZM60.0349 18.5833C60.3475 18.2709 60.7713 18.0954 61.2132 18.0954C61.6552 18.0954 62.079 18.2709 62.3916 18.5833L64.7483 20.94C64.9032 21.0948 65.0261 21.2786 65.11 21.4809C65.1939 21.6833 65.2371 21.9002 65.2371 22.1192C65.2371 22.3382 65.1939 22.5551 65.11 22.7574C65.0261 22.9598 64.9032 23.1436 64.7483 23.2984L62.2133 25.8334C60.8299 24.0851 59.2482 22.5033 57.4999 21.12L60.0349 18.5833ZM19.9649 68.0834C19.6524 68.3958 19.2285 68.5713 18.7866 68.5713C18.3447 68.5713 17.9208 68.3958 17.6083 68.0834L15.2516 65.7267C15.0966 65.5719 14.9737 65.3881 14.8898 65.1858C14.806 64.9834 14.7628 64.7665 14.7628 64.5475C14.7628 64.3285 14.806 64.1116 14.8898 63.9093C14.9737 63.7069 15.0966 63.5231 15.2516 63.3684L17.7866 60.8334C19.1699 62.5817 20.7516 64.1634 22.4999 65.5467L19.9649 68.0834ZM64.7483 63.3684C64.9032 63.5231 65.0261 63.7069 65.11 63.9093C65.1939 64.1116 65.2371 64.3285 65.2371 64.5475C65.2371 64.7665 65.1939 64.9834 65.11 65.1858C65.0261 65.3881 64.9032 65.5719 64.7483 65.7267L62.3916 68.0834C62.079 68.3958 61.6552 68.5713 61.2132 68.5713C60.7713 68.5713 60.3475 68.3958 60.0349 68.0834L57.4982 65.5467C59.2475 64.1639 60.8298 62.5821 62.2133 60.8334L64.7483 63.3684ZM73.3333 45C73.3333 45.4421 73.1577 45.8659 72.8451 46.1785C72.5325 46.4911 72.1086 46.6667 71.6666 46.6667H64.8016L64.5449 48.0217C63.5872 52.9318 61.1859 57.4444 57.6484 60.9819C54.111 64.5193 49.5984 66.9206 44.6883 67.8783L43.3333 68.135V75C43.3333 75.4421 43.1577 75.866 42.8451 76.1785C42.5325 76.4911 42.1086 76.6667 41.6666 76.6667H38.3333C37.8912 76.6667 37.4673 76.4911 37.1547 76.1785C36.8422 75.866 36.6666 75.4421 36.6666 75V68.135L35.3116 67.8783C30.4014 66.9206 25.8888 64.5193 22.3514 60.9819C18.814 57.4444 16.4127 52.9318 15.4549 48.0217L15.1983 46.6667H8.33325C7.89122 46.6667 7.4673 46.4911 7.15474 46.1785C6.84218 45.8659 6.66659 45.4421 6.66659 45V41.6667C6.66659 41.2247 6.84218 40.8008 7.15474 40.4882C7.4673 40.1756 7.89122 40 8.33325 40H15.1983L15.4549 38.645C16.4127 33.7349 18.814 29.2223 22.3514 25.6848C25.8888 22.1474 30.4014 19.7461 35.3116 18.7884L36.6666 18.5317V11.6667C36.6666 11.2247 36.8422 10.8008 37.1547 10.4882C37.4673 10.1756 37.8912 10 38.3333 10H41.6666C42.1086 10 42.5325 10.1756 42.8451 10.4882C43.1577 10.8008 43.3333 11.2247 43.3333 11.6667V18.5317L44.6883 18.7884C49.5984 19.7461 54.111 22.1474 57.6484 25.6848C61.1859 29.2223 63.5872 33.7349 64.5449 38.645L64.8016 40H71.6666C72.1086 40 72.5325 40.1756 72.8451 40.4882C73.1577 40.8008 73.3333 41.2247 73.3333 41.6667V45Z" fill="#303033" stroke="black" stroke-width="0.00064"/>
    <path d="M20 10C20 8.02218 19.4135 6.08876 18.3147 4.44427C17.2159 2.79978 15.6541 1.51808 13.8268 0.761204C11.9996 0.00432814 9.9889 -0.193699 8.04909 0.192153C6.10928 0.578006 4.32745 1.53039 2.92893 2.92892C1.5304 4.32744 0.578002 6.1093 0.19215 8.04911C-0.193702 9.98892 0.00433758 11.9996 0.761214 13.8268C1.51809 15.6541 2.79981 17.2159 4.4443 18.3147C6.0888 19.4135 8.02219 20 10 20C12.6514 19.9973 15.1934 18.9429 17.0682 17.0681C18.9429 15.1933 19.9974 12.6513 20 10ZM3.33334 10C3.33334 8.68145 3.72432 7.39251 4.45687 6.29618C5.18941 5.19985 6.23061 4.34537 7.44879 3.84078C8.66696 3.3362 10.0074 3.20422 11.3006 3.46145C12.5938 3.71869 13.7817 4.35359 14.7141 5.28594C15.6464 6.21829 16.2813 7.40618 16.5386 8.69939C16.7958 9.99259 16.6638 11.333 16.1592 12.5512C15.6546 13.7694 14.8001 14.8106 13.7038 15.5431C12.6075 16.2756 11.3185 16.6667 10 16.6667C8.23189 16.6667 6.5362 15.9643 5.28595 14.714C4.03571 13.4638 3.33334 11.7681 3.33334 10Z" fill="#303033" stroke="black" stroke-width="0.00064"/>
    <path d="M10.0001 13.3334C11.841 13.3334 13.3334 11.841 13.3334 10C13.3334 8.15907 11.841 6.66669 10.0001 6.66669C8.15913 6.66669 6.66675 8.15907 6.66675 10C6.66675 11.841 8.15913 13.3334 10.0001 13.3334Z" fill="#303033" stroke="black" stroke-width="0.00064"/>
  </g>
  <defs>
    <clipPath id="clip0_8_4">
      <rect width="80" height="80" fill="white"/>
    </clipPath>
  </defs>
</svg>