<svg width="26" height="29" viewBox="0 0 26 29" fill="none" xmlns="http://www.w3.org/2000/svg">
<path d="M14.8843 0.58645C14.2803 0.202826 13.5877 0 12.8816 0C12.1755 0 11.4828 0.202826 10.8789 0.58645L1.86182 6.31597C1.29359 6.67693 0.823733 7.18537 0.497603 7.79221C0.171473 8.39906 8.96271e-05 9.0838 0 9.78033V19.0138C8.96271e-05 19.7103 0.171473 20.3951 0.497603 21.0019C0.823733 21.6088 1.29359 22.1172 1.86182 22.4782L10.8789 28.2077C11.4828 28.5913 12.1755 28.7941 12.8816 28.7941C13.5877 28.7941 14.2803 28.5913 14.8843 28.2077L23.9014 22.4782C24.4696 22.1172 24.9395 21.6088 25.2656 21.0019C25.5917 20.3951 25.7631 19.7103 25.7632 19.0138V9.78033C25.7631 9.0838 25.5917 8.39906 25.2656 7.79221C24.9395 7.18537 24.4696 6.67693 23.9014 6.31597L14.8843 0.58645Z" fill="#7ED0EC"/>
<path d="M10.2278 22.7075H16.2152H10.2278ZM17.4503 13.1085V11.3632C17.4503 8.95347 15.4786 7 13.0463 7C12.1905 7 8.01973 7.2289 8.57139 11.5921M8.64238 13.1336C8.64238 13.3993 8.54184 11.3948 8.57139 11.5921L8.64238 13.1336ZM19.7064 21.4525C19.4523 21.8652 19.0871 22.2015 18.6499 22.4221C18.0847 22.7075 17.6951 22.7075 16.2152 22.7075H10.2278C8.74793 22.7075 8.008 22.7075 7.44276 22.4221C6.94557 22.1712 6.54134 21.7707 6.288 21.2781C6 20.7181 6 19.985 6 18.5188V17.2971C6 15.8309 6 15.0979 6.288 14.5379C6.54134 14.0452 6.94557 13.6448 7.44276 13.3938C7.75656 13.2354 8.12419 13.1649 8.64238 13.1336M19.7064 21.4525C19.7046 20.214 20.069 15.0518 19.8047 14.5379C19.5513 14.0452 19.1472 13.6448 18.6499 13.3938C18.1312 13.1319 17.4652 13.1104 16.2152 13.1086M16.2152 13.1086L10.2278 13.1085C9.56949 13.1085 9.0576 13.1085 8.64238 13.1336" fill="#7ED0EC"/>
<path d="M17.4503 13.1085V11.3632C17.4503 8.95347 15.4786 7 13.0463 7C12.1905 7 8.01973 7.2289 8.57139 11.5921M8.57139 11.5921C8.54184 11.3948 8.64238 13.3993 8.64238 13.1336M8.57139 11.5921L8.64238 13.1336M8.64238 13.1336C8.12419 13.1649 7.75656 13.2354 7.44276 13.3938C6.94557 13.6448 6.54134 14.0452 6.288 14.5379C6 15.0979 6 15.8309 6 17.2971V18.5188C6 19.985 6 20.7181 6.288 21.2781C6.54134 21.7707 6.94557 22.1712 7.44276 22.4221C8.008 22.7075 8.74793 22.7075 10.2278 22.7075H16.2152C17.6951 22.7075 18.0847 22.7075 18.6499 22.4221C19.0871 22.2015 19.4523 21.8652 19.7064 21.4525C19.7046 20.214 20.069 15.0518 19.8047 14.5379C19.5513 14.0452 19.1472 13.6448 18.6499 13.3938C18.1312 13.1319 17.4652 13.1104 16.2152 13.1086L10.2278 13.1085C9.56949 13.1085 9.0576 13.1085 8.64238 13.1336Z" stroke="white" stroke-width="2" stroke-linecap="round" stroke-linejoin="round"/>
</svg>
