<svg width="26" height="29" viewBox="0 0 26 29" fill="none" xmlns="http://www.w3.org/2000/svg">
<path d="M14.8843 0.58645C14.2803 0.202826 13.5877 0 12.8816 0C12.1755 0 11.4828 0.202826 10.8789 0.58645L1.86182 6.31597C1.29359 6.67693 0.823733 7.18537 0.497603 7.79221C0.171473 8.39906 8.96271e-05 9.0838 0 9.78033V19.0138C8.96271e-05 19.7103 0.171473 20.3951 0.497603 21.0019C0.823733 21.6088 1.29359 22.1172 1.86182 22.4782L10.8789 28.2077C11.4828 28.5913 12.1755 28.7941 12.8816 28.7941C13.5877 28.7941 14.2803 28.5913 14.8843 28.2077L23.9014 22.4782C24.4696 22.1172 24.9395 21.6088 25.2656 21.0019C25.5917 20.3951 25.7631 19.7103 25.7632 19.0138V9.78033C25.7631 9.0838 25.5917 8.39906 25.2656 7.79221C24.9395 7.18537 24.4696 6.67693 23.9014 6.31597L14.8843 0.58645Z" fill="#7ED0EC"/>
<path d="M17.4503 12.4637V10.6169C17.4503 8.06707 15.4786 6 13.0463 6C12.1905 6 11.3916 6.25595 10.7156 6.69883M8.64238 12.4903C8.61571 12.4637 16.2152 12.4639 16.2152 12.4639M8.64238 12.4903L16.2152 12.4639M8.64238 12.4903C8.12419 12.5234 7.75656 12.5981 7.44276 12.7657C6.94557 13.0312 6.54134 13.455 6.288 13.9762C6 14.5688 6 15.3445 6 16.896V18.1887C6 19.7402 6 20.5158 6.288 21.1084C6.54134 21.6297 6.94557 22.0534 7.44276 22.319C8.008 22.621 8.74793 22.621 10.2278 22.621H15.8649C17.3448 22.621 18.5993 22.7154 19.1646 22.4135C19.6017 22.1799 19.746 21.9368 20 21.5V16.5C19.9982 15.1895 20.069 14.5201 19.8047 13.9762C19.5513 13.455 19.1472 13.0312 18.6499 12.7657C18.1312 12.4885 17.4652 12.4657 16.2152 12.4639M8.64238 12.4903C9.0576 12.4637 9.56949 12.4637 10.2278 12.4637L16.2152 12.4639" stroke="white" stroke-width="2" stroke-linecap="round" stroke-linejoin="round"/>
</svg>
